<svg version="1.1" xmlns="http://www.w3.org/2000/svg" xmlns:xlink="http://www.w3.org/1999/xlink" width="512" height="512" viewBox="0,0,256,256"><g fill="#ffffff" fill-rule="nonzero" stroke="none" stroke-width="1" stroke-linecap="butt" stroke-linejoin="miter" stroke-miterlimit="10" stroke-dasharray="" stroke-dashoffset="0" font-family="none" font-weight="none" font-size="none" text-anchor="none" style="mix-blend-mode: normal"><g transform="scale(10.66667,10.66667)"><path d="M15,20h-10c-2.76005,-0.00331 -4.99669,-2.23995 -5,-5v-10c0.00331,-2.76005 2.23995,-4.99669 5,-5h10c2.76005,0.00331 4.99669,2.23995 5,5v10c-0.00331,2.76005 -2.23995,4.99669 -5,5zM5,2c-1.65685,0 -3,1.34315 -3,3v10c0,1.65685 1.34315,3 3,3h10c1.65685,0 3,-1.34315 3,-3v-10c0,-1.65685 -1.34315,-3 -3,-3zM24,19v-13c0,-0.55228 -0.44772,-1 -1,-1c-0.55228,0 -1,0.44772 -1,1v13c0,1.65685 -1.34315,3 -3,3h-13c-0.55228,0 -1,0.44772 -1,1c0,0.55228 0.44772,1 1,1h13c2.76005,-0.00331 4.99669,-2.23995 5,-5z"></path></g></g></svg>